<?xml version="1.0" standalone="no"?>
<!DOCTYPE svg PUBLIC "-//W3C//DTD SVG 20010904//EN"
 "http://www.w3.org/TR/2001/REC-SVG-20010904/DTD/svg10.dtd">
<svg version="1.0" xmlns="http://www.w3.org/2000/svg"
 width="64.000000pt" height="64.000000pt" viewBox="0 0 64.000000 64.000000"
 preserveAspectRatio="xMidYMid meet">
<metadata>
Created by potrace 1.16, written by Peter Selinger 2001-2019
</metadata>
<g transform="translate(0.000000,64.000000) scale(0.100000,-0.100000)"
fill="#000000" stroke="none">
<path d="M162 557 c-37 -38 -42 -48 -42 -89 0 -46 -1 -48 -50 -75 l-50 -28 0
-162 0 -163 300 0 300 0 0 163 0 162 -50 28 -50 28 0 90 0 89 -158 0 -158 0
-42 -43z m336 -109 c1 -74 7 -128 12 -128 6 0 10 14 10 31 0 17 3 29 8 27 50
-25 62 -33 59 -41 -2 -6 -63 -37 -135 -70 l-132 -60 -132 60 c-72 33 -133 64
-135 70 -3 8 9 16 60 41 4 2 7 -10 7 -27 0 -17 5 -31 10 -31 6 0 10 33 10 80
l0 80 50 0 50 0 0 50 0 51 128 -3 127 -3 3 -127z m-177 -268 c10 0 77 27 149
59 l131 59 -3 -116 -3 -117 -275 0 -275 0 -3 117 -3 117 132 -60 c73 -32 140
-59 150 -59z"/>
<path d="M257 462 c-12 -13 -17 -37 -17 -84 0 -82 15 -98 88 -98 64 0 68 16 6
23 -25 2 -51 10 -57 16 -16 16 -15 107 0 122 15 15 70 16 84 2 15 -15 24 -93
11 -93 -6 0 -12 19 -14 43 -3 41 -4 42 -38 42 l-35 0 0 -55 0 -55 58 -3 57 -3
0 64 c0 49 -4 68 -18 80 -26 24 -104 23 -125 -1z"/>
</g>
</svg>
